<?xml version="1.0" encoding="UTF-8" standalone="no"?>
<!DOCTYPE svg PUBLIC "-//W3C//DTD SVG 1.1//EN"
 "http://www.w3.org/Graphics/SVG/1.1/DTD/svg11.dtd">
<!-- Generated by graphviz version 2.43.0 (0)
 -->
<!-- Title: G Pages: 1 -->
<svg width="134pt" height="218pt"
 viewBox="0.00 0.00 134.00 218.00" xmlns="http://www.w3.org/2000/svg" xmlns:xlink="http://www.w3.org/1999/xlink">
<g id="graph0" class="graph" transform="scale(1 1) rotate(0) translate(4 214)">
<title>G</title>
<polygon fill="white" stroke="transparent" points="-4,4 -4,-214 130,-214 130,4 -4,4"/>
<!-- 3 -->
<g id="node1" class="node">
<title>3</title>
<ellipse fill="none" stroke="black" cx="27" cy="-18" rx="27" ry="18"/>
<text text-anchor="middle" x="27" y="-14.3" font-family="Times,serif" font-size="14.00">3</text>
</g>
<!-- 1 -->
<g id="node2" class="node">
<title>1</title>
<ellipse fill="none" stroke="black" cx="36" cy="-105" rx="27" ry="18"/>
<text text-anchor="middle" x="36" y="-101.3" font-family="Times,serif" font-size="14.00">1</text>
</g>
<!-- 1&#45;&#45;3 -->
<g id="edge2" class="edge">
<title>1&#45;&#45;3</title>
<path fill="none" stroke="black" d="M34.18,-86.8C32.62,-72.05 30.38,-50.92 28.82,-36.18"/>
<text text-anchor="middle" x="38" y="-57.8" font-family="Times,serif" font-size="14.00">1</text>
</g>
<!-- 2 -->
<g id="node3" class="node">
<title>2</title>
<ellipse fill="none" stroke="black" cx="99" cy="-18" rx="27" ry="18"/>
<text text-anchor="middle" x="99" y="-14.3" font-family="Times,serif" font-size="14.00">2</text>
</g>
<!-- 1&#45;&#45;2 -->
<g id="edge1" class="edge">
<title>1&#45;&#45;2</title>
<path fill="none" stroke="black" d="M47.56,-88.41C58.92,-73.07 76.18,-49.79 87.52,-34.49"/>
<text text-anchor="middle" x="76" y="-57.8" font-family="Times,serif" font-size="14.00">1</text>
</g>
<!-- 0 -->
<g id="node4" class="node">
<title>0</title>
<ellipse fill="none" stroke="black" cx="67" cy="-192" rx="27" ry="18"/>
<text text-anchor="middle" x="67" y="-188.3" font-family="Times,serif" font-size="14.00">0</text>
</g>
<!-- 0&#45;&#45;1 -->
<g id="edge4" class="edge">
<title>0&#45;&#45;1</title>
<path fill="none" stroke="black" d="M60.88,-174.21C55.44,-159.31 47.54,-137.65 42.11,-122.76"/>
<text text-anchor="middle" x="58" y="-144.8" font-family="Times,serif" font-size="14.00">1</text>
</g>
<!-- 0&#45;&#45;2 -->
<g id="edge3" class="edge">
<title>0&#45;&#45;2</title>
<path fill="none" stroke="black" d="M70.19,-173.88C76.32,-140.91 89.7,-68.97 95.83,-36.05"/>
<text text-anchor="middle" x="91" y="-101.3" font-family="Times,serif" font-size="14.00">1</text>
</g>
</g>
</svg>
