<?xml version="1.0" encoding="UTF-8" standalone="no"?>
<!DOCTYPE svg PUBLIC "-//W3C//DTD SVG 1.1//EN"
 "http://www.w3.org/Graphics/SVG/1.1/DTD/svg11.dtd">
<!-- Generated by graphviz version 2.43.0 (0)
 -->
<!-- Title: G Pages: 1 -->
<svg width="169pt" height="305pt"
 viewBox="0.00 0.00 169.00 305.00" xmlns="http://www.w3.org/2000/svg" xmlns:xlink="http://www.w3.org/1999/xlink">
<g id="graph0" class="graph" transform="scale(1 1) rotate(0) translate(4 301)">
<title>G</title>
<polygon fill="white" stroke="transparent" points="-4,4 -4,-301 165,-301 165,4 -4,4"/>
<!-- 7 -->
<g id="node1" class="node">
<title>7</title>
<ellipse fill="none" stroke="black" cx="77" cy="-279" rx="27" ry="18"/>
<text text-anchor="middle" x="77" y="-275.3" font-family="Times,serif" font-size="14.00">7</text>
</g>
<!-- 10 -->
<g id="node2" class="node">
<title>10</title>
<ellipse fill="none" stroke="black" cx="27" cy="-18" rx="27" ry="18"/>
<text text-anchor="middle" x="27" y="-14.3" font-family="Times,serif" font-size="14.00">10</text>
</g>
<!-- 7&#45;&#45;10 -->
<g id="edge1" class="edge">
<title>7&#45;&#45;10</title>
<path fill="none" stroke="black" d="M67.36,-261.97C64.11,-256.13 60.63,-249.39 58,-243 36.85,-191.63 30.86,-178 23,-123 20.74,-107.16 22.53,-102.99 23,-87 23.51,-69.62 24.75,-49.78 25.72,-36.03"/>
<text text-anchor="middle" x="33" y="-144.8" font-family="Times,serif" font-size="14.00">1</text>
</g>
<!-- 11 -->
<g id="node3" class="node">
<title>11</title>
<ellipse fill="none" stroke="black" cx="122" cy="-18" rx="27" ry="18"/>
<text text-anchor="middle" x="122" y="-14.3" font-family="Times,serif" font-size="14.00">11</text>
</g>
<!-- 7&#45;&#45;11 -->
<g id="edge2" class="edge">
<title>7&#45;&#45;11</title>
<path fill="none" stroke="black" d="M95,-265.27C110.51,-253.1 131.8,-233.21 141,-210 165.08,-149.29 141.15,-69.58 128.61,-35.55"/>
<text text-anchor="middle" x="156" y="-144.8" font-family="Times,serif" font-size="14.00">1</text>
</g>
<!-- 9 -->
<g id="node4" class="node">
<title>9</title>
<ellipse fill="none" stroke="black" cx="59" cy="-105" rx="27" ry="18"/>
<text text-anchor="middle" x="59" y="-101.3" font-family="Times,serif" font-size="14.00">9</text>
</g>
<!-- 7&#45;&#45;9 -->
<g id="edge3" class="edge">
<title>7&#45;&#45;9</title>
<path fill="none" stroke="black" d="M71.25,-261.2C66.91,-247.58 61.32,-227.8 59,-210 55.04,-179.56 56.34,-143.69 57.66,-123.02"/>
<text text-anchor="middle" x="64" y="-188.3" font-family="Times,serif" font-size="14.00">1</text>
</g>
<!-- 8 -->
<g id="node5" class="node">
<title>8</title>
<ellipse fill="none" stroke="black" cx="105" cy="-192" rx="27" ry="18"/>
<text text-anchor="middle" x="105" y="-188.3" font-family="Times,serif" font-size="14.00">8</text>
</g>
<!-- 7&#45;&#45;8 -->
<g id="edge4" class="edge">
<title>7&#45;&#45;8</title>
<path fill="none" stroke="black" d="M82.53,-261.21C87.44,-246.31 94.57,-224.65 99.48,-209.76"/>
<text text-anchor="middle" x="97" y="-231.8" font-family="Times,serif" font-size="14.00">1</text>
</g>
<!-- 9&#45;&#45;10 -->
<g id="edge7" class="edge">
<title>9&#45;&#45;10</title>
<path fill="none" stroke="black" d="M52.68,-87.21C47.07,-72.31 38.92,-50.65 33.31,-35.76"/>
<text text-anchor="middle" x="49" y="-57.8" font-family="Times,serif" font-size="14.00">1</text>
</g>
<!-- 9&#45;&#45;11 -->
<g id="edge8" class="edge">
<title>9&#45;&#45;11</title>
<path fill="none" stroke="black" d="M70.56,-88.41C81.92,-73.07 99.18,-49.79 110.52,-34.49"/>
<text text-anchor="middle" x="99" y="-57.8" font-family="Times,serif" font-size="14.00">1</text>
</g>
<!-- 8&#45;&#45;11 -->
<g id="edge5" class="edge">
<title>8&#45;&#45;11</title>
<path fill="none" stroke="black" d="M106.69,-173.88C109.95,-140.91 117.06,-68.97 120.31,-36.05"/>
<text text-anchor="middle" x="120" y="-101.3" font-family="Times,serif" font-size="14.00">1</text>
</g>
<!-- 8&#45;&#45;9 -->
<g id="edge6" class="edge">
<title>8&#45;&#45;9</title>
<path fill="none" stroke="black" d="M96.13,-174.61C87.93,-159.46 75.82,-137.09 67.69,-122.05"/>
<text text-anchor="middle" x="89" y="-144.8" font-family="Times,serif" font-size="14.00">1</text>
</g>
</g>
</svg>
