<?xml version="1.0" encoding="UTF-8" standalone="no"?>
<!DOCTYPE svg PUBLIC "-//W3C//DTD SVG 1.1//EN"
 "http://www.w3.org/Graphics/SVG/1.1/DTD/svg11.dtd">
<!-- Generated by graphviz version 2.43.0 (0)
 -->
<!-- Title: G Pages: 1 -->
<svg width="384pt" height="260pt"
 viewBox="0.00 0.00 383.59 260.00" xmlns="http://www.w3.org/2000/svg" xmlns:xlink="http://www.w3.org/1999/xlink">
<g id="graph0" class="graph" transform="scale(1 1) rotate(0) translate(4 256)">
<title>G</title>
<polygon fill="white" stroke="transparent" points="-4,4 -4,-256 379.59,-256 379.59,4 -4,4"/>
<!-- 0 -->
<g id="node1" class="node">
<title>0</title>
<ellipse fill="none" stroke="black" cx="55" cy="-234" rx="27" ry="18"/>
<text text-anchor="middle" x="55" y="-230.3" font-family="Times,serif" font-size="14.00">0</text>
</g>
<!-- 1 -->
<g id="node2" class="node">
<title>1</title>
<ellipse fill="none" stroke="black" cx="82" cy="-162" rx="27" ry="18"/>
<text text-anchor="middle" x="82" y="-158.3" font-family="Times,serif" font-size="14.00">1</text>
</g>
<!-- 0&#45;&#45;1 -->
<g id="edge12" class="edge">
<title>0&#45;&#45;1</title>
<path fill="none" stroke="black" d="M61.4,-216.41C65.64,-205.41 71.19,-191.03 75.46,-179.96"/>
</g>
<!-- 2 -->
<g id="node3" class="node">
<title>2</title>
<ellipse fill="none" stroke="black" cx="27" cy="-90" rx="27" ry="18"/>
<text text-anchor="middle" x="27" y="-86.3" font-family="Times,serif" font-size="14.00">2</text>
</g>
<!-- 0&#45;&#45;2 -->
<g id="edge10" class="edge">
<title>0&#45;&#45;2</title>
<path fill="none" stroke="black" d="M51.62,-215.87C46.24,-188.58 35.78,-135.52 30.39,-108.19"/>
</g>
<!-- 1&#45;&#45;2 -->
<g id="edge11" class="edge">
<title>1&#45;&#45;2</title>
<path fill="none" stroke="black" d="M70.07,-145.81C60.84,-134.07 48.13,-117.89 38.91,-106.16"/>
</g>
<!-- 3 -->
<g id="node4" class="node">
<title>3</title>
<ellipse fill="none" stroke="black" cx="99" cy="-90" rx="27" ry="18"/>
<text text-anchor="middle" x="99" y="-86.3" font-family="Times,serif" font-size="14.00">3</text>
</g>
<!-- 1&#45;&#45;3 -->
<g id="edge13" class="edge">
<title>1&#45;&#45;3</title>
<path fill="none" stroke="black" d="M86.12,-144.05C88.75,-133.21 92.16,-119.18 94.8,-108.28"/>
</g>
<!-- 4 -->
<g id="node5" class="node">
<title>4</title>
<ellipse fill="none" stroke="black" cx="154" cy="-234" rx="27" ry="18"/>
<text text-anchor="middle" x="154" y="-230.3" font-family="Times,serif" font-size="14.00">4</text>
</g>
<!-- 5 -->
<g id="node6" class="node">
<title>5</title>
<ellipse fill="none" stroke="black" cx="154" cy="-162" rx="27" ry="18"/>
<text text-anchor="middle" x="154" y="-158.3" font-family="Times,serif" font-size="14.00">5</text>
</g>
<!-- 4&#45;&#45;5 -->
<g id="edge9" class="edge">
<title>4&#45;&#45;5</title>
<path fill="none" stroke="black" d="M154,-215.7C154,-204.85 154,-190.92 154,-180.1"/>
</g>
<!-- 6 -->
<g id="node7" class="node">
<title>6</title>
<ellipse fill="none" stroke="black" cx="228" cy="-234" rx="27" ry="18"/>
<text text-anchor="middle" x="228" y="-230.3" font-family="Times,serif" font-size="14.00">6</text>
</g>
<!-- 7 -->
<g id="node8" class="node">
<title>7</title>
<ellipse fill="none" stroke="black" cx="301" cy="-234" rx="27" ry="18"/>
<text text-anchor="middle" x="301" y="-230.3" font-family="Times,serif" font-size="14.00">7</text>
</g>
<!-- 8 -->
<g id="node9" class="node">
<title>8</title>
<ellipse fill="none" stroke="black" cx="329" cy="-162" rx="27" ry="18"/>
<text text-anchor="middle" x="329" y="-158.3" font-family="Times,serif" font-size="14.00">8</text>
</g>
<!-- 7&#45;&#45;8 -->
<g id="edge8" class="edge">
<title>7&#45;&#45;8</title>
<path fill="none" stroke="black" d="M307.64,-216.41C312.1,-205.25 317.96,-190.6 322.41,-179.47"/>
</g>
<!-- 9 -->
<g id="node10" class="node">
<title>9</title>
<ellipse fill="none" stroke="black" cx="291" cy="-90" rx="27" ry="18"/>
<text text-anchor="middle" x="291" y="-86.3" font-family="Times,serif" font-size="14.00">9</text>
</g>
<!-- 7&#45;&#45;9 -->
<g id="edge7" class="edge">
<title>7&#45;&#45;9</title>
<path fill="none" stroke="black" d="M297.85,-215.88C296.09,-205.53 294.04,-192.05 293,-180 290.85,-155.06 290.62,-126.04 290.74,-108.1"/>
</g>
<!-- 10 -->
<g id="node11" class="node">
<title>10</title>
<ellipse fill="none" stroke="black" cx="255" cy="-18" rx="27" ry="18"/>
<text text-anchor="middle" x="255" y="-14.3" font-family="Times,serif" font-size="14.00">10</text>
</g>
<!-- 7&#45;&#45;10 -->
<g id="edge5" class="edge">
<title>7&#45;&#45;10</title>
<path fill="none" stroke="black" d="M292.8,-216.54C281.64,-193.13 262.22,-148.52 255,-108 250.61,-83.36 251.78,-54.26 253.22,-36.22"/>
</g>
<!-- 11 -->
<g id="node12" class="node">
<title>11</title>
<ellipse fill="none" stroke="black" cx="346" cy="-18" rx="27" ry="18"/>
<text text-anchor="middle" x="346" y="-14.3" font-family="Times,serif" font-size="14.00">11</text>
</g>
<!-- 7&#45;&#45;11 -->
<g id="edge6" class="edge">
<title>7&#45;&#45;11</title>
<path fill="none" stroke="black" d="M321.95,-222.24C337.01,-213.22 356.16,-198.8 365,-180 387.88,-131.35 366.04,-65.67 353.48,-35.46"/>
</g>
<!-- 8&#45;&#45;9 -->
<g id="edge4" class="edge">
<title>8&#45;&#45;9</title>
<path fill="none" stroke="black" d="M320.19,-144.76C314.05,-133.46 305.89,-118.44 299.77,-107.15"/>
</g>
<!-- 8&#45;&#45;11 -->
<g id="edge3" class="edge">
<title>8&#45;&#45;11</title>
<path fill="none" stroke="black" d="M331.05,-143.87C334.32,-116.58 340.67,-63.52 343.94,-36.19"/>
</g>
<!-- 9&#45;&#45;10 -->
<g id="edge1" class="edge">
<title>9&#45;&#45;10</title>
<path fill="none" stroke="black" d="M282.65,-72.76C276.83,-61.46 269.11,-46.44 263.3,-35.15"/>
</g>
<!-- 9&#45;&#45;11 -->
<g id="edge2" class="edge">
<title>9&#45;&#45;11</title>
<path fill="none" stroke="black" d="M302.93,-73.81C312.16,-62.07 324.87,-45.89 334.09,-34.16"/>
</g>
</g>
</svg>
